<svg width="924" height="860" viewBox="0 0 924 860" fill="none" xmlns="http://www.w3.org/2000/svg">
<path d="M126.052 734.882C134.295 732.953 139.326 725.061 137.289 717.255C135.252 709.449 126.918 704.685 118.675 706.614C110.432 708.543 105.401 716.435 107.438 724.241C109.475 732.046 117.809 736.811 126.052 734.882Z" stroke="#FCF4E3" stroke-width="1.8407" stroke-miterlimit="10"/>
<ellipse cx="285.5" cy="303" rx="285.5" ry="303" fill="#0062FF"/>
<ellipse cx="285.5" cy="303" rx="285.5" ry="303" fill="url(#paint0_linear_81_1273)" fill-opacity="0.4"/>
<g style="mix-blend-mode:multiply">
<ellipse cx="603.5" cy="211" rx="189.5" ry="172" fill="#0062FF"/>
<ellipse cx="603.5" cy="211" rx="189.5" ry="172" fill="url(#paint1_linear_81_1273)" fill-opacity="0.4"/>
</g>
<path d="M114.404 858.421C142.786 858.421 165.795 855.7 165.795 852.344C165.795 848.989 142.786 846.268 114.404 846.268C86.0223 846.268 63.0142 848.989 63.0142 852.344C63.0142 855.7 86.0223 858.421 114.404 858.421Z" fill="#BBE3F1"/>
<path d="M230.708 858.421C259.09 858.421 282.098 855.7 282.098 852.344C282.098 848.988 259.09 846.268 230.708 846.268C202.326 846.268 179.318 848.988 179.318 852.344C179.318 855.7 202.326 858.421 230.708 858.421Z" fill="#BBE3F1"/>
<path d="M225.299 817.709L234.453 854.775H312.059V850.369L267.951 831.533L267.118 818.469L225.299 817.709Z" fill="#F78C68"/>
<path d="M267.951 831.533L260.045 810.266L219.473 818.013L267.951 831.533Z" fill="#D17645"/>
<path d="M275.233 832.596C275.233 832.596 268.575 832.596 239.239 836.394L228.836 832.9V858.117L325.375 857.813C325.583 854.167 322.878 850.673 318.509 849.002L275.233 832.596Z" fill="#FCF4E3"/>
<path d="M106.498 817.709L97.3439 854.775H19.7385V850.369L63.8467 831.533L64.6789 818.469L106.498 817.709Z" fill="#F78C68"/>
<path d="M63.8467 831.533L64.6789 818.469L104.418 817.102L63.8467 831.533Z" fill="#D17645"/>
<path d="M56.5647 832.596C56.5647 832.596 63.2225 832.596 92.5586 836.394L102.962 832.9V858.117L6.42282 857.813C6.21477 854.167 8.91952 850.673 13.2887 849.002L56.5647 832.596Z" fill="#FCF4E3"/>
<path d="M225.923 488.676L269.407 819.228L207.822 820.291L161.842 610.202C158.096 601.696 145.197 601.847 141.036 610.202L114.196 819.228L58.229 818.165C58.229 818.165 47.2019 630.254 80.6992 478.194L225.923 488.676Z" fill="#0377BD"/>
<path d="M101.713 526.653L79.2429 814.063" stroke="#FBFAF4" stroke-width="0.685" stroke-miterlimit="10"/>
<path d="M238.615 816.19L192.218 529.236" stroke="#FBFAF4" stroke-width="0.685" stroke-miterlimit="10"/>
<path opacity="0.82" d="M67.1755 562.352L244.232 629.647L236.534 565.694L67.1755 562.352Z" fill="#002439"/>
<path d="M122.519 336.313L96.9277 431.407L23.2754 407.709C25.7721 407.406 61.766 358.187 61.766 358.187C61.766 358.187 101.713 319.907 122.519 336.313Z" fill="#002E55"/>
<path d="M94.4309 337.831C142.492 319.147 135.834 323.704 177.446 323.704C200.124 323.704 260.253 342.237 268.159 357.731C275.649 372.315 270.031 397.228 270.864 399.658L246.937 394.341L242.984 567.516L53.4436 562.503C53.4436 562.503 77.1621 423.811 77.9944 401.177C77.7863 399.81 91.31 339.047 94.4309 337.831Z" fill="#002E55"/>
<path opacity="0.43" d="M238.823 370.34L150.19 564.326L241.527 566.453L238.823 370.34Z" fill="#5200A3"/>
<path d="M131.049 299.247L128.969 325.983L141.244 352.263L179.735 322.641L173.077 298.791L131.049 299.247Z" fill="#F78C68"/>
<path d="M169.956 299.399C169.956 299.399 141.868 331.907 130.217 316.412C126.888 312.007 121.062 296.968 121.062 296.968C121.062 296.968 170.164 297.88 170.372 298.032" fill="#10192E"/>
<path d="M167.033 425.352L158.798 426.978L161.025 432.99L169.259 431.364L167.033 425.352Z" fill="#223666"/>
<path d="M122.103 388.113L91.3102 394.189C89.6457 394.493 87.7732 393.734 87.3571 392.518L86.5249 390.24C86.1087 389.024 87.149 387.657 88.8135 387.353L119.606 381.277C121.27 380.973 123.143 381.733 123.559 382.948L124.391 385.227C124.807 386.442 123.767 387.809 122.103 388.113Z" fill="#3E84C2"/>
<path d="M102.545 380.366L101.713 380.518C98.1758 381.277 96.0952 383.86 97.1355 386.442V386.594L110.659 383.86V383.708C109.619 381.125 106.082 379.606 102.545 380.366ZM103.377 383.86C102.545 384.011 101.921 383.708 101.713 383.1C101.505 382.492 101.921 382.037 102.753 381.885C103.585 381.733 104.209 382.037 104.418 382.644C104.626 383.1 104.209 383.708 103.377 383.86Z" fill="#506CA6"/>
<path d="M175.781 464.523L97.5518 480.017C95.4713 480.473 93.1826 479.562 92.7665 478.043L62.8062 397.379C62.1821 395.86 63.4304 394.189 65.511 393.886L143.949 378.239C146.029 377.783 148.318 378.695 148.734 380.214L178.694 460.877C179.11 462.548 177.862 464.067 175.781 464.523Z" fill="#FCF4E3"/>
<path d="M117.364 386.373L94.0671 390.973L96.0764 396.398L119.374 391.799L117.364 386.373Z" fill="#506CA6"/>
<path d="M125.224 387.505L88.1893 394.797L86.5249 390.24C86.1087 389.024 87.149 387.657 88.8135 387.353L119.606 381.277C121.27 380.973 123.143 381.733 123.559 382.948L125.224 387.505Z" fill="#223666"/>
<path d="M30.5573 408.773C30.5573 408.773 -2.93992 441.889 8.7113 465.586C20.1545 489.284 181.399 459.662 181.399 459.662L99.8404 424.115L74.6655 423.356L54.0678 417.735L30.5573 408.773Z" fill="#F78C68"/>
<path d="M158.929 463.916L149.775 461.637L96.9279 431.407L72.5852 425.027L136.459 465.891L158.929 463.916Z" fill="#ED864E"/>
<path d="M116.485 442.952C116.485 442.952 237.159 508.576 270.864 486.246C300.2 452.522 267.119 369.733 267.119 369.733L215.105 385.379C215.105 385.379 215.937 425.179 212.192 424.116C208.239 423.052 115.653 421.837 115.653 421.837C115.653 421.837 99.8407 408.013 72.5852 424.875L116.485 442.952Z" fill="#F78C68"/>
<path d="M185.352 473.79C209.695 476.068 239.447 471.663 252.347 454.801C260.461 444.168 260.669 430.648 259.629 418.951C258.381 405.279 254.844 391.911 252.971 378.239C252.763 377.328 252.555 376.72 251.931 376.113L270.032 368.973C270.032 368.973 300.2 452.674 270.864 486.398C254.219 497.487 216.145 486.854 182.023 473.486C183.064 473.486 184.312 473.638 185.352 473.79Z" fill="#ED864E"/>
<path d="M293.126 454.649C283.347 420.622 279.81 357.884 249.85 337.984C236.118 328.869 202.829 328.717 191.802 329.933C185.768 330.54 197.419 329.933 198.668 334.186L210.735 423.964L293.126 454.649Z" fill="#002E55"/>
<path d="M122.935 264.764C124.183 266.131 126.056 267.65 128.136 268.258C132.505 269.473 142.7 271.144 147.694 268.562C152.479 265.979 156.848 265.979 158.304 266.587L169.331 291.955L168.499 292.259L169.123 293.171L180.15 288.917L173.493 290.588C181.607 271.448 186.808 262.029 180.983 256.561C187.224 246.383 166.211 234.838 154.976 240.61C148.526 232.559 138.747 237.876 130.841 241.826C101.713 234.534 106.914 262.333 120.23 266.891C121.478 268.562 121.062 263.852 122.935 264.764ZM174.117 290.132L171.62 291.044C173.285 289.829 175.157 289.221 176.405 288.917L174.117 290.132Z" fill="#10192E"/>
<path d="M170.164 289.221C170.58 289.829 171.62 290.132 172.453 289.525C174.741 287.854 179.526 285.575 181.191 292.259C183.48 301.222 170.372 299.703 169.332 300.918C167.251 303.349 164.546 307.45 155.6 312.159C150.815 314.59 139.996 317.02 127.928 314.134C118.982 312.007 114.613 289.525 121.062 261.118C121.062 261.118 124.183 265.371 128.552 266.435C133.13 267.498 141.036 265.523 146.029 264.612C150.19 263.852 157.889 261.118 163.09 263.852C166.211 265.068 168.083 285.271 170.164 289.221Z" fill="#F78C68"/>
<path d="M179.11 291.651L172.036 295.449C172.244 295.297 174.741 286.335 179.11 291.651Z" fill="#D34A28"/>
<path d="M153.311 280.866C155.6 282.081 152.063 276.765 148.942 276.157C145.821 275.549 142.7 276.613 142.076 278.587C141.868 278.587 147.694 278.132 153.311 280.866Z" fill="#10192E"/>
<path d="M124.183 281.018C121.27 281.777 122.519 279.043 125.015 277.828C128.344 276.764 131.881 277.372 133.13 279.499C132.922 279.347 126.056 280.41 124.183 281.018Z" fill="#10192E"/>
<path d="M136.667 286.183L133.13 293.474C133.13 293.626 133.13 293.778 133.338 293.778L137.707 293.93C137.915 293.93 137.915 293.778 137.915 293.626L137.291 286.183C137.291 286.031 136.875 285.879 136.667 286.183Z" fill="#D34A28"/>
<path d="M144.157 289.98C144.846 289.98 145.405 289.096 145.405 288.006C145.405 286.915 144.846 286.031 144.157 286.031C143.467 286.031 142.908 286.915 142.908 288.006C142.908 289.096 143.467 289.98 144.157 289.98Z" fill="#10192E"/>
<path d="M131.257 288.158C131.257 289.221 131.881 290.132 132.505 290.132C133.13 290.132 133.754 289.221 133.754 288.158C133.754 287.094 133.13 286.183 132.505 286.183C131.881 286.183 131.257 287.094 131.257 288.158Z" fill="#10192E"/>
<path d="M128.969 296.513C128.969 296.513 143.533 296.817 145.405 296.665C145.405 296.665 139.788 302.893 134.794 302.589C130.217 302.285 128.969 296.513 128.969 296.513Z" fill="white"/>
<path d="M117.733 293.474C117.733 293.474 118.566 308.058 124.599 312.463C130.633 316.868 152.479 316.868 162.05 307.754C171.412 298.639 175.573 299.855 175.573 299.855C175.573 299.855 164.13 302.893 161.633 303.197C159.345 303.5 154.56 297.12 157.056 295.297C159.553 293.474 174.533 288.158 174.533 288.158C174.533 288.158 155.6 293.778 148.942 293.778C146.861 293.778 139.163 287.246 128.968 292.259C120.646 296.513 117.733 293.474 117.733 293.474Z" fill="#FBFBFB" stroke="#FBFBFB" stroke-width="0.2842" stroke-miterlimit="10"/>
<path d="M123.975 326.438C123.975 327.957 138.539 360.77 138.539 360.77L187.641 324.919" stroke="#FBFAF4" stroke-width="0.5" stroke-miterlimit="10"/>
<path d="M197.211 394.645H163.298V400.266H197.211V394.645Z" stroke="#FBFAF4" stroke-width="0.5" stroke-miterlimit="10"/>
<path d="M420.249 858.42C448.631 858.42 471.639 855.7 471.639 852.344C471.639 848.988 448.631 846.267 420.249 846.267C391.867 846.267 368.859 848.988 368.859 852.344C368.859 855.7 391.867 858.42 420.249 858.42Z" fill="#BBE3F1"/>
<path d="M577.957 858.42C606.339 858.42 629.347 855.7 629.347 852.344C629.347 848.988 606.339 846.267 577.957 846.267C549.575 846.267 526.567 848.988 526.567 852.344C526.567 855.7 549.575 858.42 577.957 858.42Z" fill="#BBE3F1"/>
<path d="M367.611 417.432C371.356 420.318 349.093 549.44 349.093 549.44C349.093 549.44 340.355 570.403 370.523 592.582L395.282 419.558L367.611 417.432Z" fill="#FFA98E"/>
<path d="M399.027 360.922C399.027 360.922 372.188 362.289 366.778 391.303C361.161 420.318 361.161 420.318 361.161 420.318L388.832 422.293L399.027 360.922Z" fill="#6DCAE7"/>
<path d="M503.888 815.279L506.177 846.572L587.944 844.597L541.339 829.558L536.761 813.76L503.888 815.279Z" fill="#FFA98E"/>
<path d="M536.761 813.76L506.177 846.572L503.888 815.279L536.761 813.76Z" fill="#FF9C81"/>
<path d="M545.916 828.495L587.944 844.597L506.177 846.572L504.72 830.166L545.916 828.495Z" fill="#0377BD"/>
<path d="M589.192 854.775L506.177 856.294L505.761 846.116L588.984 844.597L589.192 854.775Z" fill="#FCF4E3"/>
<path d="M551.117 830.622L541.963 835.027" stroke="white" stroke-width="0.685" stroke-miterlimit="10"/>
<path d="M559.024 833.508L550.077 838.065" stroke="white" stroke-width="0.685" stroke-miterlimit="10"/>
<path d="M411.719 814.975L418.377 848.091L336.61 849.154L383.423 831.685L380.718 813.608L411.719 814.975Z" fill="#FFA98E"/>
<path d="M380.718 813.608L411.719 814.975L418.376 848.091L380.718 813.608Z" fill="#FF9C81"/>
<path d="M377.597 831.685L336.61 849.154L418.377 848.091L415.464 831.077L377.597 831.685Z" fill="#0377BD"/>
<path d="M371.148 833.964L380.51 838.065" stroke="white" stroke-width="0.685" stroke-miterlimit="10"/>
<path d="M363.449 837.154L372.604 841.255" stroke="white" stroke-width="0.685" stroke-miterlimit="10"/>
<path d="M419.417 857.813L336.402 859.332L335.986 849.154L419.209 847.635L419.417 857.813Z" fill="#FCF4E3"/>
<path d="M416.088 465.891L487.66 471.207C487.66 471.207 514.915 451.307 547.788 813.152L502.016 815.583L446.673 561.441C445.216 557.795 438.35 558.706 438.558 562.504L423.162 817.254L375.101 815.279C375.101 815.279 350.55 558.858 371.772 517.539C392.786 476.068 416.088 465.891 416.088 465.891Z" fill="#6DCAE7"/>
<path d="M374.269 512.375C374.269 512.375 403.397 521.337 418.377 501.437C433.565 481.537 437.518 470.6 437.518 470.6" stroke="black" stroke-width="0.685" stroke-miterlimit="10"/>
<path d="M468.935 471.511C468.935 471.511 467.478 516.172 484.747 520.274C501.808 524.375 510.13 523.464 510.13 523.464" stroke="black" stroke-width="0.685" stroke-miterlimit="10"/>
<path d="M484.539 520.274L532.808 813.305" stroke="#FBFAF4" stroke-width="0.685" stroke-miterlimit="10"/>
<path d="M391.954 514.198L394.242 815.887" stroke="#FBFAF4" stroke-width="0.685" stroke-miterlimit="10"/>
<path opacity="0.82" d="M515.123 545.946L414.424 467.41C414.424 467.41 358.04 494.449 364.282 585.898L515.123 545.946Z" fill="#002439"/>
<path d="M428.571 310.033C428.571 310.033 403.812 307.45 405.061 320.666C406.309 333.882 417.128 331.3 417.128 331.3C417.128 331.3 412.343 343.604 427.323 340.566C442.511 337.528 443.551 326.895 442.927 322.489C442.511 317.932 428.571 310.033 428.571 310.033Z" fill="#FC461E"/>
<path d="M414.423 313.375C414.423 313.375 381.342 280.562 425.867 263.701C470.391 246.991 483.082 282.233 483.082 286.791C483.082 291.348 481.002 349.984 432.316 328.565L414.423 313.375Z" fill="#FC461E"/>
<path d="M464.149 312.767C464.149 312.767 477.673 359.858 478.713 363.2C478.713 363.2 440.639 427.306 428.363 362.745C428.363 362.745 432.524 350.744 437.102 324.616L464.149 312.767Z" fill="#FFA98E"/>
<path d="M462.069 282.234C450.209 280.563 439.182 290.74 435.437 304.412L435.229 305.476C431.484 319.147 439.39 336.313 454.995 333.73C464.357 332.211 467.062 322.034 467.686 314.134L476.425 310.185C480.17 296.513 473.928 284.057 462.069 282.234Z" fill="#000328"/>
<path d="M416.504 309.273L425.866 306.994L422.329 299.399L412.967 301.677C410.054 302.437 408.598 304.716 409.43 306.842C410.47 308.969 413.591 310.032 416.504 309.273Z" fill="#FFA98E"/>
<path d="M480.586 295.449L471.015 297.424L474.136 305.171L483.706 303.196C486.619 302.589 488.284 300.31 487.451 298.183C486.619 296.209 483.498 294.841 480.586 295.449Z" fill="#FFA98E"/>
<path d="M481.834 297.576L477.881 298.335L479.545 302.437L483.498 301.677C484.747 301.373 485.371 300.31 484.955 299.247C484.33 298.032 483.082 297.272 481.834 297.576Z" fill="#F75A4C"/>
<path d="M414.007 303.5L418.376 302.437L420.457 306.539L416.088 307.602C414.839 307.906 413.175 307.298 412.759 306.235C411.927 305.019 412.551 303.804 414.007 303.5Z" fill="#F75A4C"/>
<path d="M439.598 277.22C421.497 280.258 413.175 293.019 417.336 305.627L417.752 306.538C421.913 319.299 443.551 330.54 454.578 327.35L454.994 327.198C466.854 324.615 483.914 308.361 479.753 295.601L479.337 294.69C475.176 281.929 457.491 274.182 439.598 277.22Z" fill="#FFA98E"/>
<path d="M466.022 313.982C470.388 313.982 473.928 311.398 473.928 308.21C473.928 305.021 470.388 302.437 466.022 302.437C461.655 302.437 458.115 305.021 458.115 308.21C458.115 311.398 461.655 313.982 466.022 313.982Z" fill="#FF9C81"/>
<path d="M426.283 307.146C423.162 309.424 423.162 313.07 426.283 315.197C429.403 317.476 434.397 317.476 437.31 315.197C440.43 312.918 440.43 309.273 437.31 307.146C434.189 305.019 429.195 305.019 426.283 307.146Z" fill="#FF9C81"/>
<path d="M441.887 294.386C443.135 294.386 440.639 292.411 437.726 292.715C434.813 293.019 429.404 297.424 429.404 297.424C429.404 297.424 437.726 294.386 441.887 294.386Z" fill="#001119"/>
<path d="M453.33 293.019C452.498 293.17 453.538 291.044 454.578 290.892C455.827 290.74 461.86 290.436 465.397 293.474C465.397 293.474 458.948 292.259 453.33 293.019Z" fill="#001119"/>
<path d="M458.115 309.88C457.699 309.88 441.263 311.551 440.847 311.551C440.639 311.551 446.464 317.172 450.833 317.02C455.203 316.716 458.115 309.88 458.115 309.88Z" fill="white"/>
<path d="M451.874 310.033L447.713 310.336C446.88 310.336 446.256 309.881 446.464 309.273L446.88 301.07C447.088 300.462 448.337 300.31 448.961 300.918L452.706 308.665C453.122 309.273 452.706 309.881 451.874 310.033Z" fill="#FF7A61"/>
<path d="M439.182 303.197C439.598 304.26 440.43 304.868 441.263 304.716C442.095 304.564 442.303 303.652 442.095 302.589C441.679 301.526 440.847 300.918 440.014 301.07C439.182 301.374 438.974 302.285 439.182 303.197Z" fill="#001119"/>
<path d="M454.578 301.526C454.578 302.589 455.411 303.349 456.243 303.349C457.075 303.349 457.699 302.437 457.491 301.374C457.491 300.31 456.659 299.551 455.827 299.551C454.995 299.703 454.37 300.462 454.578 301.526Z" fill="#001119"/>
<path d="M415.048 299.855C415.464 299.855 427.323 299.551 433.981 278.739C433.981 278.739 453.538 287.55 479.129 294.69C479.129 294.69 478.505 265.827 447.713 267.043C406.517 268.714 415.048 299.855 415.048 299.855Z" fill="#FC461E"/>
<path d="M415.464 300.462C415.464 300.462 433.981 313.07 440.639 310.184C447.297 307.298 445.216 303.044 457.491 307.298C469.767 311.399 480.586 295.601 480.586 295.601C480.586 295.601 476.009 303.348 479.754 303.956C479.754 303.956 468.519 329.325 452.082 328.109C435.645 326.742 426.907 320.362 418.169 308.969C417.961 308.969 427.531 312.615 415.464 300.462Z" fill="#FBFBFB" stroke="#FBFBFB" stroke-width="0.2842" stroke-miterlimit="10"/>
<path d="M430.444 353.782L447.089 377.328L476.633 352.719L497.855 360.466C518.036 363.201 519.701 379.151 515.748 393.734L514.291 468.777C514.291 468.777 522.821 531.059 523.238 544.731L356.584 544.275L379.47 391.911C386.128 372.163 392.578 359.403 415.672 356.82L430.444 353.782Z" fill="#6DCAE7"/>
<path opacity="0.3" d="M515.748 393.886C517.412 387.202 518.036 380.214 516.372 374.442C462.901 428.825 414.84 485.79 371.148 544.579L523.446 545.034C523.029 531.363 514.499 469.08 514.499 469.08L515.748 393.886Z" fill="#002439"/>
<path d="M418.169 404.975H387.168V411.659H418.169V404.975Z" stroke="#FBFAF4" stroke-width="0.5" stroke-miterlimit="10"/>
<path d="M426.283 353.782L445.632 383.86L482.042 355.15" stroke="#FBFAF4" stroke-width="0.5" stroke-miterlimit="10"/>
<path d="M523.049 448.323L515.009 449.891L517.157 455.761L525.197 454.193L523.049 448.323Z" fill="#223666"/>
<path d="M508.258 416.672L501.392 417.432C500.143 417.583 499.103 416.976 498.895 416.064C498.687 415.153 499.519 414.393 500.768 414.241L509.298 413.33C510.546 413.178 511.587 413.786 511.795 414.697V415.153C512.003 416.064 511.171 416.976 509.922 416.976L508.258 417.128" stroke="#58BED0" stroke-width="0.1494" stroke-miterlimit="10"/>
<path d="M479.338 411.659L449.169 417.583C447.505 417.887 445.84 417.127 445.424 415.912L444.592 413.634C444.176 412.418 445.216 411.203 446.881 410.899L476.841 404.975C478.505 404.671 480.17 405.431 480.586 406.646L481.418 408.924C482.042 410.14 481.002 411.355 479.338 411.659Z" fill="#3E84C2"/>
<path d="M460.196 404.063L459.364 404.215C456.035 404.823 453.955 407.405 454.787 409.988V410.14L468.102 407.557V407.405C467.062 404.975 463.525 403.456 460.196 404.063ZM461.028 407.557C460.196 407.709 459.572 407.405 459.364 406.798C459.156 406.19 459.572 405.734 460.404 405.582C461.237 405.43 461.861 405.734 462.069 406.342C462.069 406.798 461.653 407.405 461.028 407.557Z" fill="#506CA6"/>
<path d="M531.56 486.702L454.995 501.589C452.914 502.044 450.834 501.133 450.209 499.614L421.29 420.47C420.665 418.951 421.914 417.432 423.994 416.976L500.559 402.089C502.64 401.633 504.72 402.545 505.345 404.064L534.265 483.208C534.889 484.727 533.64 486.246 531.56 486.702Z" fill="#081D06"/>
<path d="M474.819 409.95L451.905 414.419L453.838 419.702L476.752 415.233L474.819 409.95Z" fill="#506CA6"/>
<path d="M482.251 411.203L446.049 418.343L444.384 413.785C443.968 412.57 445.008 411.355 446.673 411.051L476.841 404.975C478.505 404.671 480.17 405.431 480.586 406.646L482.251 411.203Z" fill="#223666"/>
<path d="M591.064 437.179L589.608 435.357L590.44 435.053C575.252 415.912 557.775 395.405 539.466 376.872C507.009 349.377 492.029 361.681 488.492 366.238C481.418 379.91 509.922 399.354 520.325 411.203C525.734 417.431 531.56 423.508 539.05 431.407C524.486 435.053 507.009 439.002 483.707 442.8C452.29 441.129 449.169 439.306 443.968 440.673C443.968 440.673 436.686 439.914 439.807 441.889C440.639 442.496 457.7 445.838 456.451 446.294C455.411 446.75 424.619 451.459 425.867 453.434C427.115 455.56 445.84 452.978 446.465 454.041C447.089 455.105 426.907 456.016 427.323 457.991C427.739 459.966 447.921 458.599 447.505 459.51C447.297 460.421 428.364 460.573 428.78 462.092C429.196 463.612 449.377 462.7 450.21 463.156C451.042 463.763 432.109 463.763 431.484 465.738C431.068 467.105 449.169 467.105 454.787 466.65C474.552 464.827 485.371 461.941 489.949 461.181C494.942 461.333 534.889 459.358 579.621 455.257C591.064 453.889 597.306 444.319 591.064 437.179Z" fill="#FFA98E"/>
<path d="M564.017 403.456C556.111 394.341 551.95 386.29 543.419 377.631C510.962 350.136 484.747 357.428 481.21 361.985C474.76 374.593 517.204 418.039 515.748 416.52C531.352 415.457 548.621 405.431 564.017 403.456Z" fill="#6DCAE7"/>
<path d="M727.342 858.421C755.724 858.421 778.732 855.7 778.732 852.344C778.732 848.989 755.724 846.268 727.342 846.268C698.96 846.268 675.952 848.989 675.952 852.344C675.952 855.7 698.96 858.421 727.342 858.421Z" fill="#BBE3F1"/>
<path d="M857.586 858.421C885.968 858.421 908.976 855.7 908.976 852.344C908.976 848.988 885.968 846.268 857.586 846.268C829.204 846.268 806.196 848.988 806.196 852.344C806.196 855.7 829.204 858.421 857.586 858.421Z" fill="#BBE3F1"/>
<path d="M650.361 550.503C651.193 554.908 651.817 557.491 651.817 557.491C651.817 557.491 658.475 582.1 679.489 594.404C682.61 596.227 672.831 590.607 672.831 590.607C672.831 590.607 686.563 598.354 689.06 598.658C691.764 598.962 678.449 589.847 678.449 589.847C678.449 589.847 693.013 599.569 695.717 598.81C698.422 598.05 685.106 586.049 685.106 586.049C685.106 586.049 697.382 597.139 700.087 596.531C703.207 595.772 682.818 564.023 690.1 567.061C692.388 568.124 704.456 576.024 707.993 574.504C711.738 572.985 688.227 553.845 688.227 553.845C688.227 553.845 686.771 545.338 686.979 544.579L650.361 550.503Z" fill="#FB7B5C"/>
<path d="M831.163 820.899L843.022 858.42H921.668V853.863L876.935 834.875L871.526 821.507L831.163 820.899Z" fill="#FB7B5C"/>
<path d="M854.465 821.507L843.022 858.42L831.163 820.899L854.465 821.507Z" fill="#D34A28"/>
<path d="M877.559 834.875L864.244 845.356C860.707 848.091 855.089 848.243 851.552 845.508L836.364 834.419L843.646 858.42H922.5V853.863L877.559 834.875Z" fill="#FCF4E3" stroke="#FCF4E3" stroke-width="1.0208" stroke-miterlimit="10"/>
<path d="M722.973 820.444L711.322 858.117H632.468V853.56L677.2 834.571L680.737 821.203L722.973 820.444Z" fill="#FB7B5C"/>
<path d="M698.214 820.747L722.973 820.444L711.322 858.117L698.214 820.747Z" fill="#D34A28"/>
<path d="M676.368 834.571L689.684 845.053C693.221 847.787 698.838 847.939 702.375 845.205L717.564 834.115L710.281 858.117H631.428V853.559L676.368 834.571Z" fill="#FCF4E3" stroke="#FCF4E3" stroke-width="1.0208" stroke-miterlimit="10"/>
<path d="M832.619 516.172L875.895 828.798L832.619 829.254L771.45 594.404C767.081 586.961 761.88 591.366 760.84 595.316L720.892 829.102L678.241 826.823C678.241 826.823 674.079 657.142 693.013 514.045L832.619 516.172Z" fill="#002439" stroke="#002439" stroke-width="1.5604" stroke-miterlimit="10"/>
<path d="M860.499 417.431C847.391 470.447 841.566 517.994 841.566 517.994L686.147 516.172L671.999 354.997C691.14 342.693 717.563 335.857 736.913 335.401L786.014 334.338C786.014 334.338 811.189 336.92 832.827 339.503C850.928 341.781 858.834 347.098 868.197 358.795" fill="#0377BD"/>
<path opacity="0.38" d="M841.774 517.995L686.355 516.172L672.207 355.149" fill="#002E55"/>
<path d="M705.288 427.306C703.832 426.242 694.885 562.2 690.308 560.681L649.112 559.01C649.112 559.01 647.032 447.206 655.562 388.114C655.562 388.114 662.22 355.149 680.113 351.656C697.59 348.162 705.288 427.306 705.288 427.306Z" fill="#0377BD"/>
<path d="M705.288 427.306C703.831 426.242 696.758 552.478 692.18 551.111L639.542 544.883C639.542 544.883 647.032 447.206 655.562 388.114C655.562 388.114 662.22 355.149 680.113 351.656C697.59 348.162 705.288 427.306 705.288 427.306Z" fill="#FCF4E3"/>
<path d="M784.766 298.64L794.129 336.465L764.376 346.795C764.376 346.795 745.443 344.82 736.497 337.224L741.49 299.855L784.766 298.64Z" fill="#FB7B5C"/>
<path d="M780.813 264.004L786.222 301.07C786.222 301.07 763.128 342.845 740.242 302.133L751.061 263.093L780.813 264.004Z" fill="#000128"/>
<path d="M728.174 280.107L736.913 278.284L738.993 285.879L730.255 287.702C727.55 288.31 724.845 286.942 724.429 284.968C723.597 282.841 725.469 280.714 728.174 280.107Z" fill="#FB7B5C" stroke="#FB7B5C" stroke-width="1.4275" stroke-miterlimit="10"/>
<path d="M729.007 282.082L732.543 281.322L733.376 284.512L729.839 285.272C728.798 285.576 727.55 284.968 727.342 284.056C727.134 283.145 727.758 282.234 729.007 282.082Z" fill="#D34A28"/>
<path d="M797.249 278.132L788.303 279.043L787.471 271.296L796.417 270.384C799.122 270.081 801.619 271.6 801.827 273.726C802.035 275.853 799.954 277.828 797.249 278.132Z" fill="#FB7B5C" stroke="#FB7B5C" stroke-width="1.4275" stroke-miterlimit="10"/>
<path d="M796.833 272.815L793.088 273.119L793.296 276.309L797.041 276.005C798.082 275.853 799.122 275.094 798.914 274.182C799.122 273.271 798.082 272.663 796.833 272.815Z" fill="#D34A28"/>
<path d="M763.336 306.994C742.114 307.602 733.168 297.272 732.752 284.208V283.145C732.335 270.081 742.114 249.117 758.759 248.206V248.054C775.403 247.143 792.672 266.587 792.88 279.651V280.714C793.504 293.778 787.055 305.779 763.336 306.994Z" fill="#FB7B5C" stroke="#FB7B5C" stroke-width="1.4275" stroke-miterlimit="10"/>
<path d="M765.001 298.487C757.719 298.943 751.685 295.601 751.477 291.044V290.436L777.9 288.765V289.373C778.108 293.778 772.283 297.88 765.001 298.487Z" fill="white"/>
<path d="M757.094 278.891C757.094 279.803 756.262 280.562 755.43 280.562C754.39 280.562 753.765 279.803 753.765 278.891C753.765 277.98 754.598 277.22 755.43 277.22C756.262 277.22 757.094 277.98 757.094 278.891Z" fill="#000128"/>
<path d="M772.699 277.676C772.699 278.588 771.867 279.347 771.034 279.347C769.994 279.347 769.37 278.588 769.37 277.676C769.37 276.765 770.202 276.005 771.034 276.005C771.867 276.005 772.699 276.765 772.699 277.676Z" fill="#000128"/>
<path d="M766.873 286.031L760.632 286.335C759.799 286.335 759.383 285.727 759.591 285.12L762.088 279.499C762.296 278.74 763.544 278.74 763.961 279.347L767.706 284.664C768.122 285.12 767.706 286.031 766.873 286.031Z" fill="#D34A28"/>
<path d="M747.108 274.03C745.443 275.094 747.732 270.688 750.02 270.081C752.517 269.473 755.014 270.081 755.846 271.6C756.054 271.6 751.269 271.448 747.108 274.03Z" fill="#000128"/>
<path d="M775.611 270.688C777.692 271.448 774.155 267.498 771.45 267.346C768.954 267.042 766.457 268.258 766.249 269.777C766.249 269.777 770.826 268.865 775.611 270.688Z" fill="#000128"/>
<path d="M788.511 255.194C788.303 254.89 788.095 254.586 787.887 254.282C789.967 253.523 793.92 235.901 789.759 236.509C740.45 245.32 743.57 228.61 728.174 255.194C727.758 255.801 727.966 256.257 728.174 256.865C727.966 257.32 727.55 257.776 727.342 258.232C725.678 261.422 725.469 265.068 726.094 268.41C726.302 270.081 730.463 279.195 732.543 279.347C733.376 279.347 738.577 267.498 741.49 260.966C746.483 261.422 752.309 261.422 758.343 260.966C765 260.359 771.866 258.84 777.484 257.472C781.645 261.574 790.592 269.929 792.048 269.929C793.712 269.777 789.759 257.472 788.511 255.194Z" fill="#000128"/>
<path d="M728.59 334.945L737.745 323.096L765.209 346.338L752.309 366.086L728.59 334.945Z" fill="#399AD4"/>
<path d="M800.994 334.945L791.84 323.096L764.376 346.338L779.564 365.782L800.994 334.945Z" fill="#399AD4"/>
<path d="M732.751 279.195C732.751 279.195 749.188 286.487 755.638 285.423C762.088 284.36 762.088 281.17 770.618 284.208C779.148 287.094 792.256 269.777 792.256 269.777C792.256 269.777 787.887 279.499 794.961 279.347C794.961 279.347 791.632 306.387 767.913 308.209C743.779 310.032 732.127 288.917 732.127 288.917C732.127 288.917 735.456 288.006 736.08 285.119C736.705 282.081 732.751 279.195 732.751 279.195Z" fill="#FBFAF4"/>
<path d="M734.832 327.958C729.631 328.717 744.819 591.366 744.819 591.366L671.375 592.43L673.455 365.175C673.247 351.655 685.522 339.503 703.415 335.705L734.832 327.958Z" fill="#FCF4E3"/>
<path d="M793.712 324.16L784.35 586.049H863.412L855.922 342.693L793.712 324.16Z" fill="#FCF4E3"/>
<path d="M725.886 330.692L709.865 366.39L722.557 373.682L712.778 390.088L737.121 460.269" stroke="#002439" stroke-width="0.5104" stroke-miterlimit="10"/>
<path d="M806.404 327.654L816.807 359.554L803.699 369.884L813.894 380.518L789.967 459.206" stroke="#002439" stroke-width="0.5104" stroke-miterlimit="10"/>
<path d="M840.941 409.836H810.773V413.938H840.941V409.836Z" stroke="#002439" stroke-width="0.4263" stroke-miterlimit="10"/>
<path d="M873.798 519.018L869.47 524.384L876.82 527.545L881.149 522.178L873.798 519.018Z" fill="#223666"/>
<path d="M806.196 515.261L789.967 535.312C789.135 536.376 787.054 536.831 785.598 536.072L782.685 534.857C781.229 534.249 780.605 532.73 781.645 531.667L797.873 511.615C798.706 510.551 800.786 510.096 802.243 510.855L805.156 512.07C806.612 512.678 807.028 514.197 806.196 515.261Z" fill="#3E84C2"/>
<path d="M784.766 519.666L784.35 520.273C782.477 522.552 783.517 525.438 786.638 526.805H786.846L793.92 517.995H793.712C790.591 516.628 786.638 517.387 784.766 519.666ZM788.719 521.793C788.303 522.248 787.47 522.4 786.846 522.096C786.222 521.793 786.014 521.185 786.43 520.729C786.846 520.273 787.679 520.122 788.303 520.425C788.719 520.577 789.135 521.337 788.719 521.793Z" fill="#506CA6"/>
<path d="M917.715 542.452L876.727 593.341C875.687 594.708 873.19 595.164 871.318 594.405L772.699 552.022C770.826 551.263 770.202 549.44 771.242 548.073L812.23 497.183C813.27 495.816 815.767 495.361 817.639 496.12L916.258 538.502C918.131 539.262 918.755 541.085 917.715 542.452Z" fill="#6DCAE7"/>
<path d="M801.029 516.401L788.783 531.585L795.417 534.437L807.662 519.253L801.029 516.401Z" fill="#506CA6"/>
<path d="M807.652 513.285L788.095 537.439L782.477 535.008C781.021 534.401 780.396 532.882 781.437 531.818L797.665 511.766C798.498 510.703 800.578 510.247 802.035 511.007L807.652 513.285Z" fill="#223666"/>
<path d="M883.801 548.528C882.969 552.934 882.345 555.516 882.345 555.516C882.345 555.516 875.687 580.125 854.673 592.43C851.552 594.253 861.331 588.632 861.331 588.632C861.331 588.632 847.599 596.379 845.103 596.683C842.398 596.987 855.714 587.872 855.714 587.872C855.714 587.872 841.149 597.595 838.445 596.835C835.74 596.075 849.056 584.075 849.056 584.075C849.056 584.075 836.78 595.164 834.076 594.556C830.955 593.797 851.344 562.048 844.062 565.086C841.774 566.15 829.706 574.049 826.169 572.53C822.424 571.011 845.935 551.87 845.935 551.87C845.935 551.87 847.391 543.363 847.183 542.604L883.801 548.528Z" fill="#FB7B5C"/>
<path d="M832.411 378.543C830.955 385.986 831.787 393.582 834.908 400.722C840.941 414.241 850.512 438.85 851.968 454.193C855.505 493.993 841.358 552.022 844.478 551.111L885.466 559.314C885.466 559.314 905.231 504.171 903.775 457.231C902.943 428.673 872.566 345.579 854.673 342.085C842.398 339.654 835.532 363.2 832.411 378.543Z" fill="#0377BD"/>
<path d="M832.411 378.543C830.955 385.986 831.787 393.582 834.908 400.721C840.941 414.241 850.512 438.85 851.968 454.193C855.505 493.993 835.948 538.198 838.861 537.287L901.07 545.49C901.07 545.49 915.634 500.221 914.178 453.282C913.346 424.723 872.774 345.275 854.881 341.933C842.398 339.654 835.532 363.2 832.411 378.543Z" fill="#FCF4E3" stroke="#FCF4E3" stroke-width="1.0208" stroke-miterlimit="10"/>
<path d="M745.027 397.379C745.027 392.67 739.826 388.721 733.168 388.721C726.718 388.721 721.309 392.518 721.309 397.379C721.309 402.089 726.51 406.038 733.168 406.038C739.618 406.038 745.027 402.089 745.027 397.379Z" fill="#081D06"/>
<path d="M733.168 402.089C736.73 402.089 739.618 399.98 739.618 397.38C739.618 394.779 736.73 392.67 733.168 392.67C729.606 392.67 726.718 394.779 726.718 397.38C726.718 399.98 729.606 402.089 733.168 402.089Z" fill="#399AD4"/>
<path d="M773.115 425.331L772.283 424.419C770.618 422.444 769.994 420.166 770.618 417.887L779.773 387.657C782.061 379.91 792.464 375.049 803.075 376.872C813.686 378.543 820.344 386.138 817.847 393.886L808.693 423.963C808.068 426.394 805.988 428.369 803.075 429.584L802.243 429.888" stroke="#081D06" stroke-width="1.0208" stroke-miterlimit="10"/>
<path d="M776.444 425.178L771.659 427.457C770.826 426.546 771.242 425.482 772.491 425.027L773.115 424.723C774.155 424.115 775.82 424.267 776.444 425.178Z" fill="#081D06"/>
<path d="M802.243 432.318L799.122 428.825C800.371 428.217 801.827 428.521 802.451 429.432L802.867 429.888C803.7 430.647 803.491 431.711 802.243 432.318Z" fill="#081D06"/>
<path d="M738.369 322.489C738.369 322.489 720.06 324.919 723.597 348.617C727.134 372.315 731.295 389.936 731.295 389.936" stroke="#081D06" stroke-width="1.0208" stroke-miterlimit="10"/>
<path d="M789.76 318.843C789.76 318.843 823.049 315.653 804.324 376.416" stroke="#081D06" stroke-width="1.0208" stroke-miterlimit="10"/>
<path d="M388.256 381.518C388.256 376.982 384.294 373.228 379.506 373.228C374.718 373.228 370.756 376.982 370.756 381.518C370.756 386.053 374.718 389.807 379.506 389.807C384.294 389.964 388.256 386.21 388.256 381.518Z" fill="#FCF4E3" stroke="#FCF4E3" stroke-width="1.0208" stroke-miterlimit="10"/>
<path d="M607.006 719.407C607.006 714.871 603.044 711.117 598.256 711.117C593.468 711.117 589.506 714.871 589.506 719.407C589.506 723.942 593.468 727.696 598.256 727.696C603.044 727.852 607.006 724.099 607.006 719.407Z" fill="#FCF4E3" stroke="#FCF4E3" stroke-width="1.0208" stroke-miterlimit="10"/>
<path d="M880.756 384.111C880.756 379.858 877.36 376.338 873.256 376.338C869.152 376.338 865.756 379.858 865.756 384.111C865.756 388.365 869.152 391.885 873.256 391.885C877.36 391.885 880.756 388.365 880.756 384.111Z" fill="#FCF4E3" stroke="#FCF4E3" stroke-width="1.0208" stroke-miterlimit="10"/>
<path d="M875.131 646.856C883.76 646.856 890.756 640.127 890.756 631.827C890.756 623.527 883.76 616.798 875.131 616.798C866.501 616.798 859.506 623.527 859.506 631.827C859.506 640.127 866.501 646.856 875.131 646.856Z" stroke="#FCF4E3" stroke-width="1.8407" stroke-miterlimit="10"/>
<path d="M345.131 336.952C353.07 336.952 359.506 330.687 359.506 322.96C359.506 315.232 353.07 308.967 345.131 308.967C337.192 308.967 330.756 315.232 330.756 322.96C330.756 330.687 337.192 336.952 345.131 336.952Z" stroke="#FCF4E3" stroke-width="1.8407" stroke-miterlimit="10"/>
<path d="M805.131 325.551C813.76 325.551 820.756 319.054 820.756 311.04C820.756 303.026 813.76 296.53 805.131 296.53C796.501 296.53 789.506 303.026 789.506 311.04C789.506 319.054 796.501 325.551 805.131 325.551Z" stroke="#FCF4E3" stroke-width="1.8407" stroke-miterlimit="10"/>
<defs>
<linearGradient id="paint0_linear_81_1273" x1="285.5" y1="1.03545e-05" x2="643.06" y2="587.632" gradientUnits="userSpaceOnUse">
<stop stop-color="#0139FE"/>
<stop offset="1" stop-color="#10F1FF"/>
</linearGradient>
<linearGradient id="paint1_linear_81_1273" x1="603.5" y1="39" x2="790.67" y2="398.676" gradientUnits="userSpaceOnUse">
<stop stop-color="#0139FE"/>
<stop offset="1" stop-color="#10F1FF"/>
</linearGradient>
</defs>
</svg>
